<svg height="512" viewBox="0 0 512 512" width="512" xmlns="http://www.w3.org/2000/svg"><g id="_15-error" data-name="15-error"><g id="linear_color" data-name="linear color"><path d="m496 4h-480a12 12 0 0 0 -12 12v480a12 12 0 0 0 12 12h480a12 12 0 0 0 12-12v-480a12 12 0 0 0 -12-12zm-468 24h456v72h-456zm0 456v-360h456v360z"/><circle cx="448" cy="64" r="12"/><circle cx="399.261" cy="64" r="12"/><circle cx="353.196" cy="64" r="12"/><path d="m448 148h-104a12 12 0 0 0 0 24h104a12 12 0 0 0 0-24z"/><path d="m448 196h-80a12 12 0 0 0 0 24h80a12 12 0 0 0 0-24z"/><path d="m448 244h-64a12 12 0 0 0 0 24h64a12 12 0 0 0 0-24z"/><path d="m304 436h-240a12 12 0 0 0 0 24h240a12 12 0 0 0 0-24z"/><path d="m64 412h144a12 12 0 0 0 0-24h-144a12 12 0 0 0 0 24z"/><path d="m64 364h64a12 12 0 0 0 0-24h-64a12 12 0 0 0 0 24z"/><path d="m379.855 353.01a36.059 36.059 0 0 0 -40.969-7.025l-24.56-24.56a107.911 107.911 0 1 0 -16.966 16.975l24.54 24.542c-6.556 13.348-3.686 30.564 7.042 40.98l50.912 50.911c13.4 13.966 37.512 13.966 50.912 0 13.967-13.4 13.966-37.512 0-50.912zm-209.3-39.6a84 84 0 1 1 59.4 24.6 84.094 84.094 0 0 1 -59.403-24.598zm243.245 124.453a12.056 12.056 0 0 1 -16.97 0l-50.912-50.912c-10.918-11.461 5.482-27.869 16.967-16.971l50.915 50.912a12.056 12.056 0 0 1 0 16.971z"/><path d="m227.605 191.672a36.041 36.041 0 0 0 -36 36 12 12 0 0 0 24 0 12 12 0 1 1 12 12 12 12 0 0 0 -12 12v16a12 12 0 0 0 24 0v-6.056a36 36 0 0 0 -12-69.944z"/><circle cx="227.605" cy="303.672" r="12"/></g></g></svg>