<svg height="512pt" viewBox="-6 0 512 512.00017" width="512pt" xmlns="http://www.w3.org/2000/svg"><path d="m423.371094 120.128906c4.847656-12.835937.953125-27.871094-10.519532-36.542968-.003906-.003907-.007812-.007813-.011718-.011719-12.457032-9.394531-29.664063-8.199219-40.730469 2.058593-8.835937-3.808593-18.066406-6.945312-27.5625-9.332031-42.617187-10.714843-87.375-5.96875-126.03125 13.355469-38.96875 19.476562-67.132813 51.445312-79.304687 90.003906-11.433594 36.160156-7.449219 74.277344 11.175781 107.761719l-10.554688 55.726563c-.597656 3.152343.328125 6.402343 2.496094 8.765624 2.167969 2.363282 5.328125 3.574219 8.519531 3.25l62.570313-6.28125c12.832031 6.945313 26.699219 12.324219 41.28125 16 14.6875 3.6875 29.804687 5.515626 44.898437 5.515626 22.820313 0 45.585938-4.183594 66.6875-12.457032 5.234375-2.050781 7.8125-7.957031 5.761719-13.1875-2.050781-5.230468-7.953125-7.8125-13.1875-5.761718-31.148437 12.210937-66.378906 14.394531-99.195313 6.152343-13.914062-3.507812-27.078124-8.75-39.128906-15.582031-2.113281-1.199219-4.484375-1.558594-6.734375-1.171875l-51.441406 5.164063 8.722656-46.039063c.460938-2.429687.019531-4.945313-1.242187-7.074219-17.289063-29.242187-21.277344-62.855468-11.226563-94.652344 21.816407-69.089843 102.992188-109.351562 180.976563-89.75 7.847656 1.972657 15.488281 4.515626 22.824218 7.582032-1.878906 11.285156 2.402344 23.214844 12.136719 30.578125 5.71875 4.3125 12.4375 6.394531 19.105469 6.394531 5.84375 0 11.644531-1.609375 16.699219-4.710938 31.882812 32.667969 43.496093 77.691407 30.28125 119.515626-4.785157 15.199218-12.539063 29.304687-23.054688 41.933593-3.597656 4.316407-3.011719 10.730469 1.308594 14.328125 1.902344 1.585938 4.210937 2.355469 6.503906 2.355469 2.917969 0 5.8125-1.246094 7.828125-3.664063 12.21875-14.671874 21.242188-31.105468 26.824219-48.832031 15.722656-49.765625 1.652344-103.226562-36.675781-141.390625zm-36.554688-2.167968c-5-3.78125-5.988281-10.9375-2.207031-15.941407 2.234375-2.949219 5.644531-4.5 9.09375-4.5 2.402344 0 4.824219.75 6.882813 2.304688 4.992187 3.78125 5.972656 10.933593 2.199218 15.929687-3.789062 5-10.957031 5.984375-15.96875 2.207032zm0 0"/><path d="m382.71875 58.507812c14.769531-3.203124 30.113281.171876 42.117188 9.269532 13.152343 9.925781 20.613281 25.078125 20.460937 41.578125-.054687 5.621093 4.460937 10.214843 10.082031 10.269531h.09375c5.578125 0 10.121094-4.496094 10.171875-10.082031.207031-22.679688-10.464843-44.363281-28.535156-57.996094-16.722656-12.679687-38.121094-17.394531-58.707031-12.929687-5.492188 1.191406-8.976563 6.609374-7.789063 12.101562 1.195313 5.492188 6.609375 8.972656 12.105469 7.789062zm0 0"/><path d="m460.453125 20.679688c-23.800781-17.996094-54.183594-24.679688-83.351563-18.339844-5.492187 1.195312-8.972656 6.613281-7.78125 12.105468 1.195313 5.492188 6.617188 8.972657 12.105469 7.78125 23.359375-5.078124 47.691407.273438 66.757813 14.683594 20.84375 15.757813 32.675781 39.800782 32.464844 65.972656-.046876 5.617188 4.46875 10.210938 10.089843 10.253907.027344.003906.058594.003906.085938.003906 5.578125 0 10.128906-4.5 10.171875-10.09375.265625-32.1875-14.890625-62.980469-40.542969-82.367187zm0 0"/><path d="m248.382812 411.199219c-26.992187-19.058594-43.820312-25.121094-66.308593-8.109375-.46875.351562-.90625.746094-1.304688 1.175781-4.628906.59375-21.945312-5.003906-39.890625-22.9375-4.136718-4.132813-8.355468-8.8125-12.480468-13.832031-4.1875-5.191406-7.921876-10.269532-11.09375-15.109375-13.921876-21.152344-15.921876-39.222657-14.421876-43.664063.496094-.300781.964844-.648437 1.402344-1.027344 21.253906-18.585937 18.722656-36.285156 5.507813-66.5625-7.808594-19.238281-16.664063-38.496093-31.273438-44.507812-11.179687-4.582031-27.785156 1.914062-33.226562 4.792969-12.628907 6.65625-25.234375 19.367187-32.886719 33.148437-14.027344 25.15625-14.300781 57.046875-9.875 78.5 13.453125 65.277344 92.4375 162.1875 153.648438 188.535156 13.292968 5.742188 31.472656 10.398438 50.226562 10.398438 9.613281 0 19.375-1.222656 28.703125-4.148438 15.339844-4.808593 29.980469-14.335937 39.136719-25.46875 3.929687-4.742187 13.640625-19.660156 11.421875-31.550781-2.898438-15.523437-19.992188-28.089843-37.285157-39.632812zm10.167969 58.230469c-6.566406 7.980468-18.15625 15.4375-29.527343 19.003906-22.242188 6.976562-48.792969 1.390625-64.785157-5.515625-25.835937-11.121094-58.347656-38.722657-86.96875-73.835938-28.636719-35.125-49.121093-72.554687-54.804687-100.121093v-.003907c-3.519532-17.054687-3.609375-44.175781 7.726562-64.496093 5.757813-10.371094 15.414063-20.199219 24.613282-25.050782 4.585937-2.429687 11.394531-4.105468 14.667968-4.105468.546875 0 .996094.046874 1.320313.144531 7.945312 3.269531 16.527343 24.425781 20.191406 33.457031.035156.085938.070313.167969.105469.25 12.6875 29.039062 9.816406 34.320312.675781 42.445312-3.074219 1.804688-6.539063 5.152344-8.367187 11.355469-4.253907 14.429688 2.539062 38.792969 16.898437 60.609375 3.53125 5.378906 7.660156 11.003906 12.320313 16.78125 4.601562 5.601563 9.269531 10.773438 13.875 15.375 18.476562 18.460938 40.953124 30.039063 55.945312 28.796875 6.460938-.535156 10.453125-3.253906 12.847656-5.902343 9.800782-7.289063 15.554688-9.027344 41.464844 9.28125.074219.050781.148438.105468.222656.15625 8.117188 5.410156 27.117188 18.085937 28.675782 26.433593.230468 2.445313-3.226563 10.265625-7.097657 14.941407zm0 0"/><path d="m220.332031 190.304688-11.042969 29.882812-11.042968-29.882812-.027344-.058594c-1.761719-4.4375-5.21875-7-10.007812-7-2.96875 0-5.59375 1.066406-7.726563 3.082031-2.105469 2.046875-3.285156 4.582031-3.285156 7.519531 0 .867188.085937 1.730469.257812 2.59375.175781.664063.347657 1.328125.578125 1.988282l.027344.089843 20.761719 52.097657.027343.027343c.925782 2.105469 2.191407 4.609375 4.007813 6.082031 1.875 1.527344 4.355469 1.929688 6.71875 1.929688 5.160156 0 8.390625-3.574219 10.207031-8.097656l20.703125-51.953125c.605469-1.5.894531-3.113281.894531-4.753907 0-2.941406-1.125-5.503906-3.230468-7.550781-2.160156-2.046875-4.8125-3.054687-7.753906-3.054687-4.847657 0-8.394532 2.535156-10.066407 7.058594zm0 0"/><path d="m414.410156 190.21875c-5.332031-5.128906-12.078125-7.261719-19.402344-7.261719h-17.734374c-3.027344 0-5.707032 1.09375-7.871094 3.257813-2.164063 2.160156-3.230469 4.867187-3.230469 7.921875v52.414062c0 3 1.066406 5.679688 3.203125 7.808594 2.074219 2.078125 4.667969 3.199219 7.609375 3.199219s5.535156-1.121094 7.613281-3.199219c2.105469-2.074219 3.199219-4.667969 3.199219-7.605469v-11.957031h8.132813c7.148437 0 13.753906-2.046875 18.914062-7.148437 5.074219-5.042969 7.207031-11.496094 7.207031-18.585938.003907-7.289062-2.332031-13.773438-7.640625-18.84375zm-16.203125 23.082031c-1.152343 1.125-2.421875 1.757813-4.035156 1.757813h-6.371094v-12.074219h6.457031c1.617188 0 2.882813.546875 4.007813 1.730469 1.183594 1.265625 1.703125 2.707031 1.703125 4.4375 0 1.667968-.609375 2.964844-1.761719 4.148437zm0 0"/><path d="m282.730469 182.699219c-10.152344 0-19.03125 3.339843-26.066407 10.746093-7.121093 7.523438-10.121093 16.886719-10.121093 27.175782 0 10.371094 3 19.851562 10.175781 27.460937 6.980469 7.402344 15.773438 10.863281 25.921875 10.863281 10.179687 0 19.03125-3.488281 25.980469-10.980468 7.0625-7.578125 10.121094-16.855469 10.121094-27.144532 0-10.316406-3-19.710937-10.121094-27.257812-6.949219-7.40625-15.742188-10.863281-25.890625-10.863281zm9.742187 51.605469c-2.566406 3.199218-5.765625 4.699218-9.832031 4.699218-4.09375 0-7.324219-1.441406-9.859375-4.640625-3.054688-3.832031-3.949219-8.84375-3.949219-13.628906 0-4.753906.949219-9.539063 4.035157-13.285156 2.566406-3.109375 5.738281-4.636719 9.777343-4.636719 4.09375 0 7.324219 1.441406 9.859375 4.636719 3.027344 3.804687 3.949219 8.703125 3.949219 13.457031 0 4.785156-.949219 9.597656-3.980469 13.398438zm0 0"/><path d="m334.371094 185.609375c-2.019532 2.101563-3.199219 4.667969-3.199219 7.605469v53.539062c0 2.9375 1.066406 5.5625 3.140625 7.636719 2.105469 2.105469 4.730469 3.167969 7.671875 3.167969 2.96875 0 5.59375-1.0625 7.667969-3.167969 2.078125-2.046875 3.144531-4.640625 3.144531-7.550781v-53.625c0-2.96875-1.039063-5.589844-3.085937-7.722656-2.046876-2.132813-4.640626-3.285157-7.613282-3.285157-3.027344 0-5.652344 1.210938-7.726562 3.402344zm0 0"/><path d="m389.882812 322.515625-.175781.113281c-4.675781 3.121094-5.9375 9.4375-2.820312 14.113282 1.960937 2.941406 5.1875 4.53125 8.476562 4.53125 1.9375 0 3.898438-.554688 5.636719-1.710938l.171875-.113281c4.675781-3.117188 5.9375-9.4375 2.820313-14.113281-3.117188-4.671876-9.433594-5.941407-14.109376-2.820313zm0 0"/></svg>